<svg width="97" height="97" viewBox="0 0 97 97" version="1.1" xmlns="http://www.w3.org/2000/svg" xmlns:xlink="http://www.w3.org/1999/xlink">
<title>Shape</title>
<desc>Created using Figma</desc>
<g id="Canvas" transform="translate(-28584 -4135)">
<g id="Shape">
<use xlink:href="#path0_fill" transform="translate(28584 4135)" fill="#5CBC49"/>
</g>
</g>
<defs>
<path id="path0_fill" fill-rule="evenodd" d="M 0 48.5C 0 21.8252 21.8242 0 48.5 0C 75.1758 0 97 21.8252 97 48.5C 97 75.1748 75.1758 97 48.5 97C 21.8242 97 0 75.1748 0 48.5ZM 72.75 36.375C 72.75 32.4941 69.3535 29.0996 65.4746 29.0996C 61.5938 29.0996 58.1992 32.4941 58.1992 36.375C 58.1992 40.2549 61.5938 43.6494 65.4746 43.6494C 69.3535 43.6494 72.75 40.2549 72.75 36.375ZM 31.5254 29.0996C 35.4043 29.0996 38.8008 32.4941 38.8008 36.375C 38.8008 40.2549 35.4043 43.6494 31.5254 43.6494C 27.6445 43.6494 24.25 40.2549 24.25 36.375C 24.25 32.4941 27.6445 29.0996 31.5254 29.0996ZM 21.3398 58.2002C 25.2207 69.3555 35.8906 77.6006 48.5 77.6006C 61.1094 77.6006 71.7793 69.3555 75.6602 58.2002L 21.3398 58.2002Z"/>
</defs>
</svg>
