<svg width="49" height="61" viewBox="0 0 49 61" version="1.1" xmlns="http://www.w3.org/2000/svg" xmlns:xlink="http://www.w3.org/1999/xlink">
<title>Shape Copy 3</title>
<desc>Created using Figma</desc>
<g id="Canvas" transform="translate(-22946 -14988)">
<g id="Shape Copy 3" filter="url(#filter0_d)">
<use xlink:href="#path0_fill" transform="translate(22961 14994)" fill="#00CB00"/>
<use xlink:href="#path1_stroke" transform="translate(22961 14994)" fill="#FFFFFF"/>
</g>
</g>
<defs>
<filter id="filter0_d" filterUnits="userSpaceOnUse" x="22946" y="14988" width="49" height="61" color-interpolation-filters="sRGB">
<feFlood flood-opacity="0" result="BackgroundImageFix"/>
<feColorMatrix in="SourceAlpha" type="matrix" values="0 0 0 0 0 0 0 0 0 0 0 0 0 0 0 0 0 0 255 0"/>
<feOffset dx="-5" dy="4"/>
<feGaussianBlur stdDeviation="4"/>
<feColorMatrix type="matrix" values="0 0 0 0 0 0 0 0 0 0 0 0 0 0 0 0 0 0 0.268937 0"/>
<feBlend mode="normal" in2="BackgroundImageFix" result="effect1_dropShadow"/>
<feBlend mode="normal" in="SourceGraphic" in2="effect1_dropShadow" result="shape"/>
</filter>
<path id="path0_fill" d="M 14.0299 0C 6.21322 0 0 6.2 0 14C 0 24.4 14.0299 40 14.0299 40C 14.0299 40 28.0597 24.4 28.0597 14C 28.0597 6.2 21.8465 0 14.0299 0Z"/>
<path id="path1_stroke" d="M 14.0299 40L 12.5428 41.3374L 14.0299 42.9909L 15.5169 41.3374L 14.0299 40ZM 14.0299 -2C 5.11267 -2 -2 5.09142 -2 14L 2 14C 2 7.30858 7.31377 2 14.0299 2L 14.0299 -2ZM -2 14C -2 19.8765 1.86265 26.838 5.35685 32.0184C 7.14681 34.6703 8.953 37.0148 10.2831 38.6583C 10.9535 39.4863 11.5201 40.1585 11.9095 40.6121C 12.1067 40.8418 12.2654 41.0236 12.3707 41.1434C 12.4246 41.2046 12.4677 41.2532 12.4954 41.2844C 12.5099 41.3007 12.5218 41.3139 12.5291 41.3221C 12.5331 41.3266 12.5365 41.3304 12.5385 41.3326C 12.5396 41.3339 12.5407 41.3351 12.5413 41.3357C 12.5416 41.3361 12.542 41.3365 12.5422 41.3367C 12.5425 41.3371 12.5428 41.3374 14.0299 40C 15.5169 38.6626 15.5171 38.6628 15.5172 38.6629C 15.5172 38.6629 15.5172 38.6629 15.5171 38.6629C 15.5169 38.6625 15.5167 38.6623 15.5161 38.6617C 15.5147 38.6601 15.513 38.6583 15.5103 38.6552C 15.5041 38.6483 15.4958 38.639 15.4838 38.6255C 15.4584 38.597 15.4228 38.5568 15.3739 38.5012C 15.2737 38.3873 15.131 38.2238 14.9445 38.0066C 14.5667 37.5665 14.0372 36.9387 13.3923 36.1417C 12.0918 34.5352 10.3905 32.3297 8.673 29.7816C 5.15228 24.562 2 18.5235 2 14L -2 14ZM 14.0299 40C 15.5169 41.3374 15.5172 41.3371 15.5175 41.3367C 15.5177 41.3365 15.5181 41.3361 15.5184 41.3357C 15.519 41.3351 15.5201 41.3339 15.5212 41.3326C 15.5232 41.3304 15.5266 41.3266 15.5306 41.3221C 15.5379 41.3139 15.5498 41.3007 15.5643 41.2844C 15.592 41.2532 15.6351 41.2046 15.689 41.1434C 15.7943 41.0236 15.953 40.8418 16.1502 40.6121C 16.5396 40.1585 17.1063 39.4863 17.7766 38.6583C 19.1067 37.0148 20.9129 34.6703 22.7028 32.0184C 26.1971 26.838 30.0597 19.8765 30.0597 14L 26.0597 14C 26.0597 18.5235 22.9074 24.562 19.3867 29.7816C 17.6692 32.3297 15.9679 34.5352 14.6674 36.1417C 14.0225 36.9387 13.493 37.5665 13.1152 38.0066C 12.9287 38.2238 12.786 38.3873 12.6858 38.5012C 12.6369 38.5568 12.6013 38.597 12.5759 38.6255C 12.5639 38.639 12.5556 38.6483 12.5494 38.6552C 12.5467 38.6583 12.545 38.6601 12.5436 38.6617C 12.543 38.6623 12.5428 38.6625 12.5426 38.6629C 12.5425 38.6629 12.5425 38.6629 12.5425 38.6629C 12.5426 38.6628 12.5428 38.6626 14.0299 40ZM 30.0597 14C 30.0597 5.09142 22.947 -2 14.0299 -2L 14.0299 2C 20.7459 2 26.0597 7.30858 26.0597 14L 30.0597 14Z"/>
</defs>
</svg>
