<?xml version="1.0" encoding="UTF-8"?>
<svg width="210px" height="143px" viewBox="0 0 210 143" version="1.1" xmlns="http://www.w3.org/2000/svg" xmlns:xlink="http://www.w3.org/1999/xlink">
    <!-- Generator: Sketch 46.2 (44496) - http://www.bohemiancoding.com/sketch -->
    <title>Error</title>
    <desc>Created with Sketch.</desc>
    <defs></defs>
    <g id="main-board" stroke="none" stroke-width="1" fill="none" fill-rule="evenodd">
        <g id="Error">
            <g id="Group-2" transform="translate(15.000000, 23.000000)">
                <path d="M108.650105,27.9802449 C111.142284,28.5754387 113.434712,29.8497254 115.291903,31.7086715 C117.149094,33.5676176 118.424713,35.8575337 119.018322,38.3513658 C119.088856,38.7407625 119.276945,39.1126646 119.576759,39.4125189 C120.358456,40.195827 121.628057,40.195827 122.415774,39.4125189 C122.915338,38.9083724 123.097596,38.2014386 122.950699,37.5533846 C122.216023,34.3716184 120.611248,31.3499374 118.130918,28.8707783 C115.650589,26.3916191 112.629315,24.7836176 109.449483,24.0488429 C108.797002,23.9034305 108.091669,24.0827035 107.586273,24.5866618 C106.804576,25.36997 106.804576,26.6412469 107.586273,27.4245551 C107.891918,27.7245975 108.262265,27.909702 108.650105,27.9802449 Z" id="Shape" fill="#0297DF" fill-rule="nonzero"></path>
                <path d="M126.543031,20.4565431 C121.995821,15.9095082 116.363838,13.1069988 110.476692,12.0503429 L110.476692,12.0518606 C109.81858,11.9006658 109.101279,12.0799369 108.591333,12.5913811 C107.802889,13.381312 107.802889,14.6618195 108.591333,15.4532681 C108.893734,15.7541399 109.267087,15.9392918 109.652582,16.0106208 C111.47268,16.3293249 113.257112,16.8405794 114.982354,17.5400211 C118.243126,18.8620741 121.165831,20.8065485 123.679516,23.3186198 C126.193202,25.8306911 128.137751,28.7593542 129.459855,32.0182933 C130.159513,33.7449867 130.66927,35.5247973 130.989314,37.3448254 C131.060456,37.7331512 131.244287,38.10668 131.546688,38.4075518 C132.335132,39.1974827 133.621759,39.1974827 134.410203,38.4075518 C134.919959,37.8961076 135.097719,37.1788337 134.949554,36.5222653 C133.894376,30.6383804 131.090051,25.0050957 126.543031,20.4565431 Z" id="Shape" fill="#0297DF" fill-rule="nonzero"></path>
                <path d="M146.966061,35.6384864 L146.971882,35.6369841 C145.721958,26.9588208 141.760548,18.5946497 135.082395,11.9176226 C128.404053,5.23928108 120.04162,1.27644537 111.362198,0.0279887348 L111.362198,0.0323080041 C110.740241,-0.0807441758 110.071149,0.102730874 109.589845,0.585362273 C108.803385,1.36733782 108.803385,2.63645182 109.589845,3.41842737 C109.918476,3.74706742 110.329359,3.93786645 110.757705,3.99063666 C110.769348,3.99213901 110.787,3.99213901 110.798831,3.99364137 C113.832751,4.42782183 116.796437,5.22745004 119.66022,6.38952128 C124.37842,8.3027698 128.615504,11.1151775 132.247907,14.7506877 C135.88632,18.3848834 138.697334,22.6203965 140.610341,27.3387287 C141.772379,30.2025921 142.570483,33.1676766 143.004651,36.203184 C143.010472,36.2163296 143.010472,36.229663 143.010472,36.2413062 C143.063241,36.669665 143.25103,37.0848783 143.579661,37.4135183 C144.366121,38.1954939 145.633697,38.1954939 146.414336,37.4135183 C146.89564,36.9310747 147.083429,36.2634659 146.966061,35.6384864 Z" id="Shape" fill="#0297DF" fill-rule="nonzero"></path>
                <path d="M109.347098,46.3773582 C111.690425,44.0124507 111.684599,40.185652 109.341272,37.8252851 C106.992119,35.4634047 103.193821,35.4603777 100.844668,37.8148795 L76.7805104,13.5908485 C75.9964571,12.8030505 74.7279146,12.8030505 73.9468683,13.5908485 C73.911537,13.6249032 73.8412504,13.7047424 73.8382435,13.7075803 C58.9064644,30.3432855 59.4027934,56.0307213 75.3300495,72.064794 C75.4621658,72.1977964 75.600296,72.3307988 75.7352313,72.4609633 L66.59402,97 L98.6687887,97 L94.0291179,82.9906665 C107.46195,86.6621381 122.349565,83.5198382 133.296617,73.5635777 C133.296617,73.5605506 133.378931,73.4896034 133.414074,73.4542244 C134.195309,72.66794 134.195309,71.3908899 133.414074,70.6015784 L109.347098,46.3773582 Z M106.504623,40.6794447 C107.279843,41.4628912 107.285669,42.7354006 106.510449,43.5231986 L105.095131,42.0968756 L103.67831,40.6690391 C104.462363,39.8931602 105.723576,39.8946738 106.504623,40.6794447 Z M72.3815808,92.9649003 L78.9533828,75.3166363 C82.1482306,77.8707364 85.6279837,79.8897998 89.2691705,81.3766644 L93.1071224,92.9649003 L72.3815808,92.9649003 Z M119.430789,77.6342457 C114.867607,79.4966576 110.04583,80.4395935 105.095131,80.4395935 C100.148755,80.4395935 95.3241589,79.4966576 90.7609765,77.6342457 C86.0391794,75.7039136 81.8018715,72.8688625 78.1636916,69.2093101 C74.5283306,65.5495685 71.7123541,61.2810051 69.7977006,56.527541 C67.9476958,51.9337556 67.0080347,47.0781275 67.0080347,42.0970648 C67.0080347,37.1144885 67.9476958,32.2590497 69.7977006,27.6652642 C71.2101992,24.1578227 73.113013,20.9148723 75.4768245,17.9854142 L102.260174,44.9497108 L129.044838,71.9172237 C126.137714,74.293672 122.913361,76.209247 119.430789,77.6342457 Z" id="Shape" fill="#000000" fill-rule="nonzero"></path>
                <path d="M0,95 L180.044439,95" id="Path-10" stroke="#000000" stroke-width="4"></path>
            </g>
        </g>
    </g>
</svg>