<?xml version="1.0" encoding="utf-8"?>
<!-- Generator: Adobe Illustrator 17.0.0, SVG Export Plug-In . SVG Version: 6.00 Build 0)  -->
<!DOCTYPE svg PUBLIC "-//W3C//DTD SVG 1.1//EN" "http://www.w3.org/Graphics/SVG/1.1/DTD/svg11.dtd">
<svg version="1.1" id="Layer_1" xmlns="http://www.w3.org/2000/svg" xmlns:xlink="http://www.w3.org/1999/xlink" x="0px" y="0px"
	 width="300px" height="186.25px" viewBox="0 0 300 186.25" enable-background="new 0 0 300 186.25" xml:space="preserve">
<g>
	<polygon fill="#FFFFFF" points="76.098,124.733 69.248,124.733 69.233,144.35 61.77,149.887 61.77,124.733 55.024,124.71 
		55.048,152.941 61.213,152.941 69.233,147.053 69.233,152.941 76.098,152.941 	"/>
	<polygon fill="#FFFFFF" points="94.051,124.733 87.19,124.733 87.19,152.941 101.665,152.941 101.665,151.053 94.051,151.053 	"/>
	<polygon fill="#FFFFFF" points="43.997,152.941 37.087,152.941 37.063,122.563 29.596,128.045 29.596,152.941 22.901,152.941 
		22.901,122.517 15.465,128.045 15.465,152.941 8.492,152.941 8.492,118.524 15.465,118.524 15.465,124.795 23.921,118.524 
		29.596,118.524 29.596,124.86 38.156,118.524 44.005,118.524 	"/>
	<rect x="130" y="124.733" fill="#FFFFFF" width="6.845" height="28.208"/>
	<polygon fill="#FFFFFF" points="101.39,124.725 123.861,124.733 123.861,126.621 116.058,126.621 116.058,152.941 109.205,152.941 
		109.205,126.621 101.39,126.621 	"/>
	<path fill="#FFFFFF" d="M147.938,123.099c0-2.857,3.151-4.575,6.39-4.575h10.583v6.208h-2.699v-3.772h-7.413v29.54
		c0,0,1.649,0,3.24,0c2.243,0,4.173-1.795,4.173-3.618c0,0-0.023-1.969,0-1.961l2.699,0.027v1.946c0,3.193-3.286,6.046-6.865,6.046
		h-10.108L147.938,123.099L147.938,123.099z"/>
	<polygon fill="#FFFFFF" points="172.498,124.733 179.355,124.733 179.355,137.304 186.806,131.69 186.837,124.733 193.752,124.733 
		193.752,152.941 186.837,152.941 186.837,134.454 179.355,139.972 179.355,152.941 172.498,152.941 	"/>
	<rect x="236.921" y="124.733" fill="#FFFFFF" width="6.857" height="28.208"/>
	<path fill="#FFFFFF" d="M261.647,126.621v24.432c0.023,0.008,1.961-0.008,2-0.008c2.012,0.008,3.61-1.205,3.61-2.722v-2.305h2.44
		v2.305c0,2.73-2.927,4.618-6.089,4.618h-8.811V128.2c0-1.981,2.76-3.467,4.324-3.467h10.575v5.324h-2.44v-3.436
		C267.256,126.621,261.647,126.621,261.647,126.621z"/>
	<polygon fill="#FFFFFF" points="278.071,124.733 292.558,124.733 292.558,126.621 284.94,126.621 284.94,135.814 291.001,135.814 
		291.001,137.659 284.94,137.659 284.94,151.053 292.558,151.053 292.558,152.941 278.071,152.941 	"/>
	<path fill="#FFFFFF" d="M211.536,126.621h7.479v24.432h-7.479V126.621z M221.099,124.702h-11.545c-2.564,0-4.772,1.594-4.772,3.599
		v20.969c0,1.784,1.931,3.672,4.772,3.672h11.761c2.085,0,4.571-1.73,4.571-3.687V128.3
		C225.887,126.389,223.663,124.702,221.099,124.702"/>
	<polygon fill="#CB6B39" points="149.367,8.147 128.498,30.224 149.367,110.154 	"/>
	<polygon fill="none" stroke="#CB6B39" stroke-width="0.0694" stroke-miterlimit="3.864" points="149.367,8.147 128.498,30.224 
		149.367,110.154 	"/>
	<polygon fill="#802B82" points="46.523,30.012 49.967,56.066 145.432,110.37 	"/>
	<polygon fill="none" stroke="#802B82" stroke-width="0.0694" stroke-miterlimit="3.864" points="46.523,30.012 49.967,56.066 
		145.432,110.37 	"/>
	<polygon fill="#E80E8A" points="145.432,110.37 81.657,40.614 46.523,30.012 	"/>
	<polygon fill="none" stroke="#E80E8A" stroke-width="0.0694" stroke-miterlimit="3.864" points="145.432,110.37 81.657,40.614 
		46.523,30.012 	"/>
	<polygon fill="#5E6DB3" points="142.081,110.748 44.557,58.062 7.442,58.95 	"/>
	<polygon fill="none" stroke="#5E6DB3" stroke-width="0.0694" stroke-miterlimit="3.864" points="142.081,110.748 44.557,58.062 
		7.442,58.95 	"/>
	<polygon fill="#451D5B" points="7.442,58.95 16.724,78.625 142.081,110.748 	"/>
	<polygon fill="none" stroke="#451D5B" stroke-width="0.0694" stroke-miterlimit="3.864" points="7.442,58.95 16.724,78.625 
		142.081,110.748 	"/>
	<polygon fill="#B72938" points="96.024,13.673 87.63,38.834 147.598,110.204 	"/>
	<polygon fill="none" stroke="#B72938" stroke-width="0.0694" stroke-miterlimit="3.864" points="96.024,13.673 87.63,38.834 
		147.598,110.204 	"/>
	<polygon fill="#EA2227" points="147.598,110.204 121.857,31.116 96.024,13.673 	"/>
	<polygon fill="none" stroke="#EA2227" stroke-width="0.0694" stroke-miterlimit="3.864" points="147.598,110.204 121.857,31.116 
		96.024,13.673 	"/>
	<polygon fill="#F27023" points="149.351,8.147 170.042,30.224 149.351,110.154 	"/>
	<polygon fill="none" stroke="#F27023" stroke-width="0.0694" stroke-miterlimit="3.864" points="149.351,8.147 170.042,30.224 
		149.351,110.154 	"/>
	<polygon fill="#50B748" points="251.531,30.012 248.439,56.066 153.347,110.37 	"/>
	<polygon fill="none" stroke="#50B748" stroke-width="0.0694" stroke-miterlimit="3.864" points="251.531,30.012 248.439,56.066 
		153.347,110.37 	"/>
	<polygon fill="#648F43" points="153.347,110.37 216.408,40.614 251.531,30.012 	"/>
	<polygon fill="none" stroke="#648F43" stroke-width="0.0694" stroke-miterlimit="3.864" points="153.347,110.37 216.408,40.614 
		251.531,30.012 	"/>
	<polygon fill="#027295" points="156.699,110.748 254.635,58.062 292.241,58.71 	"/>
	<polygon fill="none" stroke="#027295" stroke-width="0.0694" stroke-miterlimit="3.864" points="156.699,110.748 254.635,58.062 
		292.241,58.71 	"/>
	<polygon fill="#00A9BB" points="292.241,58.71 282.484,78.625 156.699,110.748 	"/>
	<polygon fill="none" stroke="#00A9BB" stroke-width="0.0694" stroke-miterlimit="3.864" points="292.241,58.71 282.484,78.625 
		156.699,110.748 	"/>
	<polygon fill="#FCB731" points="201.833,13.673 209.999,38.834 151.173,110.204 	"/>
	<polygon fill="none" stroke="#FCB731" stroke-width="0.0694" stroke-miterlimit="3.864" points="201.833,13.673 209.999,38.834 
		151.173,110.204 	"/>
	<polygon fill="#E28E37" points="151.173,110.204 176.856,31.116 201.833,13.673 	"/>
	<polygon fill="none" stroke="#E28E37" stroke-width="0.0694" stroke-miterlimit="3.864" points="151.173,110.204 176.856,31.116 
		201.833,13.673 	"/>
	<g>
		<path fill="#FFFFFF" d="M101.024,160.52l3.737,17.351h-2.332l-0.633-3.39h-3.455l-0.637,3.39h-2.262l3.772-17.351H101.024z
			 M100.981,170.188l-0.869-6.313h-0.046l-1.378,8.819h2.753L100.981,170.188z"/>
		<path fill="#FFFFFF" d="M124.939,160.52v2.004H121v5.448h3.548v2.008H121v7.892h-2.293V160.52H124.939z"/>
		<path fill="#FFFFFF" d="M139.008,160.52h2.76c0.413,0,0.865,0.027,1.386,0.081c0.494,0.058,0.965,0.224,1.398,0.506
			c0.433,0.278,0.788,0.726,1.081,1.321c0.285,0.603,0.44,1.44,0.44,2.533c0,0.417-0.035,0.865-0.104,1.344
			c-0.073,0.486-0.204,0.942-0.39,1.374c-0.17,0.429-0.417,0.807-0.726,1.132c-0.317,0.316-0.703,0.521-1.181,0.618l3.201,8.444
			h-2.398l-3.127-8.49h-0.039v8.49h-2.301V160.52z M143.108,167.547c0.348-0.506,0.518-1.212,0.518-2.077
			c0-0.413-0.008-0.803-0.054-1.181c-0.031-0.37-0.127-0.683-0.266-0.958c-0.135-0.278-0.328-0.494-0.595-0.648
			c-0.263-0.147-0.614-0.224-1.039-0.205h-0.363v5.741C142.166,168.276,142.768,168.049,143.108,167.547z"/>
		<path fill="#FFFFFF" d="M163.305,177.871h-2.297V160.52h2.297V177.871z"/>
		<path fill="#FFFFFF" d="M185.258,162.89c-0.232-0.127-0.467-0.228-0.71-0.309c-0.247-0.085-0.502-0.131-0.757-0.131
			c-0.536,0-0.984,0.123-1.374,0.355c-0.355,0.24-0.66,0.556-0.9,0.946c-0.231,0.386-0.417,0.838-0.552,1.324
			c-0.139,0.494-0.239,0.988-0.301,1.502c-0.062,0.506-0.093,1-0.1,1.479c-0.008,0.483-0.008,0.904-0.008,1.259
			c0,0.579,0.015,1.247,0.07,2.004c0.054,0.772,0.193,1.483,0.401,2.17c0.212,0.679,0.544,1.266,1,1.737
			c0.451,0.471,1.073,0.707,1.861,0.707c0.467,0,0.93-0.108,1.37-0.344v2.031c-0.293,0.189-0.591,0.313-0.88,0.382
			c-0.293,0.062-0.614,0.1-0.961,0.1c-0.776,0-1.459-0.132-2.023-0.39c-0.56-0.259-1.047-0.602-1.44-1.043
			c-0.39-0.436-0.714-0.954-0.954-1.525c-0.232-0.571-0.425-1.185-0.563-1.819c-0.124-0.637-0.216-1.278-0.263-1.946
			c-0.046-0.649-0.069-1.294-0.069-1.908c0-0.583,0.023-1.205,0.069-1.888c0.039-0.68,0.108-1.359,0.216-2.038
			c0.124-0.676,0.294-1.34,0.525-1.965c0.216-0.629,0.541-1.185,0.911-1.679c0.382-0.502,0.861-0.884,1.421-1.17
			c0.556-0.297,1.232-0.44,2.008-0.44c0.409,0,0.753,0.031,1.054,0.104c0.293,0.07,0.618,0.205,0.95,0.402L185.258,162.89
			L185.258,162.89z"/>
		<path fill="#FFFFFF" d="M203.74,160.52l3.726,17.351h-2.32l-0.649-3.39h-3.448l-0.649,3.39h-2.251l3.776-17.351H203.74z
			 M203.694,170.188l-0.877-6.313h-0.046l-1.378,8.819h2.764L203.694,170.188z"/>
	</g>
</g>
</svg>
