<?xml version="1.0" encoding="iso-8859-1"?>
<!-- Generator: Adobe Illustrator 17.0.0, SVG Export Plug-In . SVG Version: 6.00 Build 0)  -->
<!DOCTYPE svg PUBLIC "-//W3C//DTD SVG 1.1//EN" "http://www.w3.org/Graphics/SVG/1.1/DTD/svg11.dtd">
<svg version="1.1" id="Layer_1" xmlns="http://www.w3.org/2000/svg" xmlns:xlink="http://www.w3.org/1999/xlink" x="0px" y="0px"
	 width="300px" height="186.25px" viewBox="0 0 300 186.25" style="enable-background:new 0 0 300 186.25;" xml:space="preserve">
<g>
	<polygon style="fill:#231F20;" points="77.184,123.093 70.416,123.093 70.395,142.428 63.051,147.882 63.051,123.093 
		56.407,123.083 56.431,150.892 62.506,150.892 70.395,145.097 70.395,150.892 77.184,150.892 	"/>
	<polygon style="fill:#231F20;" points="94.864,123.093 88.106,123.093 88.106,150.892 102.361,150.892 102.361,149.036 
		94.864,149.036 	"/>
	<polygon style="fill:#231F20;" points="45.542,150.893 38.716,150.893 38.705,120.958 31.35,126.36 31.35,150.893 24.753,150.893 
		24.753,120.915 17.419,126.36 17.419,150.893 10.565,150.893 10.565,116.976 17.419,116.976 17.416,123.156 25.754,116.975 
		31.35,116.976 31.35,123.221 39.78,116.975 45.552,116.975 	"/>
	<rect x="130.281" y="123.093" style="fill:#231F20;" width="6.757" height="27.799"/>
	<polygon style="fill:#231F20;" points="102.107,123.087 124.234,123.093 124.234,124.951 116.548,124.951 116.548,150.892 
		109.788,150.892 109.798,124.949 102.107,124.951 	"/>
	<g>
		<path style="fill:#231F20;" d="M147.964,121.492c0-2.818,3.107-4.516,6.304-4.516h10.413v6.117h-2.657l0.003-3.716h-7.307v29.114
			c0,0,1.633-0.003,3.189,0c2.219,0.003,4.114-1.763,4.114-3.571c0,0-0.006-1.939,0-1.93l2.657,0.023c0.001-0.008,0,1.923,0,1.923
			c0,3.138-3.233,5.956-6.757,5.956h-9.96V121.492z"/>
		<polygon style="fill:#231F20;" points="172.164,123.093 178.922,123.093 178.922,135.488 186.268,129.947 186.288,123.093 
			193.109,123.093 193.109,150.892 186.288,150.892 186.288,132.669 178.922,138.114 178.922,150.892 172.164,150.892 		"/>
		<rect x="235.651" y="123.093" style="fill:#231F20;" width="6.757" height="27.799"/>
		<path style="fill:#231F20;" d="M260.026,124.951v24.084c0.013,0.004,1.922-0.003,1.96-0.003c1.979,0.003,3.553-1.195,3.548-2.686
			v-2.275h2.402v2.275c0.01,2.689-2.882,4.547-5.989,4.547h-8.679V126.52c0-1.954,2.722-3.427,4.259-3.427h10.409v5.253h-2.402
			v-3.395H260.026z"/>
		<polygon style="fill:#231F20;" points="276.201,123.093 290.484,123.093 290.484,124.951 282.958,124.951 282.958,134.015 
			288.947,134.015 288.947,135.84 282.958,135.84 282.958,149.036 290.484,149.036 290.484,150.892 276.201,150.892 		"/>
		<path style="fill-rule:evenodd;clip-rule:evenodd;fill:#231F20;" d="M210.636,124.951h7.366v24.085h-7.366V124.951z
			 M220.05,123.078h-11.359c-2.538,0-4.715,1.552-4.715,3.537v20.658c0,1.761,1.889,3.623,4.715,3.623h11.584
			c2.052,0,4.486-1.702,4.486-3.644v-20.637C224.761,124.726,222.583,123.078,220.05,123.078"/>
		<polygon style="fill:#CB6A39;" points="149.368,8.209 128.808,29.972 149.368,108.736 		"/>
		<polygon style="fill:none;stroke:#CB6A39;stroke-width:0.232;stroke-miterlimit:3.864;" points="149.368,8.209 128.808,29.972 
			149.368,108.736 		"/>
		<polygon style="fill:#812A84;" points="48.034,29.753 51.42,55.432 145.497,108.95 		"/>
		<polygon style="fill:none;stroke:#812A84;stroke-width:0.232;stroke-miterlimit:3.864;" points="48.034,29.753 51.42,55.432 
			145.497,108.95 		"/>
		<polygon style="fill:#EB008B;" points="145.496,108.95 82.657,40.208 48.034,29.753 		"/>
		<polygon style="fill:none;stroke:#EB008B;stroke-width:0.232;stroke-miterlimit:3.864;" points="145.496,108.95 82.657,40.208 
			48.034,29.753 		"/>
		<polygon style="fill:#5E6DB2;" points="142.188,109.323 46.087,57.399 9.517,58.274 		"/>
		<polygon style="fill:none;stroke:#5E6DB2;stroke-width:0.232;stroke-miterlimit:3.864;" points="142.188,109.323 46.087,57.399 
			9.517,58.274 		"/>
		<polygon style="fill:#45065C;" points="9.516,58.274 18.659,77.652 142.188,109.323 		"/>
		<polygon style="fill:none;stroke:#45065C;stroke-width:0.232;stroke-miterlimit:3.864;" points="9.516,58.274 18.659,77.652 
			142.188,109.323 		"/>
		<polygon style="fill:#B72837;" points="96.809,13.655 88.54,38.458 147.63,108.789 		"/>
		<polygon style="fill:none;stroke:#B72837;stroke-width:0.232;stroke-miterlimit:3.864;" points="96.809,13.655 88.54,38.458 
			147.63,108.789 		"/>
		<polygon style="fill:#EC1C24;" points="147.63,108.79 122.268,30.847 96.809,13.655 		"/>
		<polygon style="fill:none;stroke:#EC1C24;stroke-width:0.232;stroke-miterlimit:3.864;" points="147.63,108.79 122.268,30.847 
			96.809,13.655 		"/>
		<polygon style="fill:#F26F21;" points="149.354,8.209 169.73,29.972 149.354,108.736 		"/>
		<polygon style="fill:none;stroke:#F26F21;stroke-width:0.232;stroke-miterlimit:3.864;" points="149.354,8.209 169.73,29.972 
			149.354,108.736 		"/>
		<polygon style="fill:#50B748;" points="250.045,29.753 247.005,55.432 153.286,108.95 		"/>
		<polygon style="fill:none;stroke:#50B748;stroke-width:0.232;stroke-miterlimit:3.864;" points="250.045,29.753 247.005,55.432 
			153.286,108.95 		"/>
		<polygon style="fill:#639044;" points="153.286,108.95 215.443,40.208 250.045,29.753 		"/>
		<polygon style="fill:none;stroke:#639044;stroke-width:0.232;stroke-miterlimit:3.864;" points="153.286,108.95 215.443,40.208 
			250.045,29.753 		"/>
		<polygon style="fill:#007195;" points="156.595,109.323 253.108,57.399 290.147,58.047 		"/>
		<polygon style="fill:none;stroke:#007195;stroke-width:0.232;stroke-miterlimit:3.864;" points="156.595,109.323 253.108,57.399 
			290.147,58.047 		"/>
		<polygon style="fill:#00AABC;" points="290.146,58.047 280.535,77.653 156.594,109.323 		"/>
		<polygon style="fill:none;stroke:#00AABC;stroke-width:0.232;stroke-miterlimit:3.864;" points="290.146,58.047 280.535,77.653 
			156.594,109.323 		"/>
		<polygon style="fill:#FCB833;" points="201.073,13.655 209.122,38.458 151.151,108.789 		"/>
		<polygon style="fill:none;stroke:#FCB833;stroke-width:0.232;stroke-miterlimit:3.864;" points="201.073,13.655 209.122,38.458 
			151.151,108.789 		"/>
		<polygon style="fill:#E18E38;" points="151.151,108.79 176.467,30.847 201.073,13.655 		"/>
		<polygon style="fill:none;stroke:#E18E38;stroke-width:0.232;stroke-miterlimit:3.864;" points="151.151,108.79 176.467,30.847 
			201.073,13.655 		"/>
		<polygon style="fill:#231F20;" points="59.197,164.188 59.197,177.859 64.075,177.859 64.075,176.282 61.01,176.282 
			61.01,171.641 63.748,171.641 63.748,170.063 61.01,170.063 61.01,165.765 64.075,165.765 64.075,164.188 		"/>
		<polygon style="fill:#231F20;" points="73.261,167.362 73.298,167.325 76.488,177.859 78.175,177.859 78.175,164.188 
			76.362,164.188 76.362,169.066 76.797,174.542 76.76,174.579 73.569,164.188 71.828,164.188 71.828,177.859 73.641,177.859 
			73.641,172.838 73.37,168.249 		"/>
		<path style="fill-rule:evenodd;clip-rule:evenodd;fill:#231F20;" d="M88.54,170.244v-4.515h0.291
			c1.377-0.036,1.54,1.052,1.54,2.358C90.371,169.464,89.899,170.336,88.54,170.244 M86.727,177.859h1.813v-6.69h0.036l2.465,6.69
			h1.886l-2.52-6.653c1.505-0.273,1.885-2.231,1.885-3.518c0-3.426-2.067-3.499-3.39-3.499h-2.176V177.859z"/>
		<rect x="100.61" y="164.189" style="fill:#231F20;" width="1.813" height="13.67"/>
		<path style="fill:#231F20;" d="M116.27,164.405c-0.526-0.307-0.96-0.398-1.577-0.398c-3.717,0-4.061,4.496-4.061,7.234
			c0,2.865,0.49,6.8,4.188,6.8c0.526,0,0.997-0.09,1.451-0.381v-1.594c-0.344,0.181-0.689,0.27-1.088,0.27
			c-2.484,0-2.63-3.408-2.63-5.221c0-1.704,0.019-5.403,2.557-5.403c0.417,0,0.797,0.164,1.16,0.344V164.405z"/>
		<polygon style="fill:#231F20;" points="124.008,164.188 124.008,177.859 125.821,177.859 125.821,171.097 128.559,171.097 
			128.559,177.859 130.373,177.859 130.373,164.188 128.559,164.188 128.559,169.519 125.821,169.519 125.821,164.188 		"/>
		<rect x="138.924" y="164.189" style="fill:#231F20;" width="1.813" height="13.67"/>
		<polygon style="fill:#231F20;" points="150.722,167.362 150.758,167.325 153.949,177.859 155.636,177.859 155.636,164.188 
			153.823,164.188 153.823,169.066 154.258,174.542 154.221,174.579 151.03,164.188 149.289,164.188 149.289,177.859 
			151.102,177.859 151.102,172.838 150.83,168.249 		"/>
		<path style="fill:#231F20;" d="M167.397,170.643v1.577h1.524v0.743c0,3.265-0.818,3.373-1.561,3.373
			c-0.798,0-1.595-0.544-1.595-5.294c0-3.301,0.109-5.331,1.595-5.331c1.124,0,1.379,0.889,1.561,1.795l1.722-0.707
			c-0.471-1.814-1.397-2.793-3.337-2.793c-3.155,0-3.464,3.229-3.464,7.054c0,3.862,0.381,6.98,3.627,6.98
			c3.644,0,3.264-4.568,3.264-7.18v-0.218H167.397z"/>
		<polygon style="fill:#231F20;" points="188.932,164.188 188.932,177.859 193.791,177.859 193.791,176.282 190.744,176.282 
			190.744,164.188 		"/>
		<rect x="201.275" y="164.189" style="fill:#231F20;" width="1.812" height="13.67"/>
		<polygon style="fill:#231F20;" points="210.661,164.188 213.308,177.859 214.758,177.859 217.442,164.188 215.72,164.188 
			214.886,169.011 214.16,173.616 214.069,174.469 214.033,174.469 212.473,164.188 		"/>
		<polygon style="fill:#231F20;" points="224.998,164.188 224.998,177.859 229.876,177.859 229.876,176.282 226.811,176.282 
			226.811,171.641 229.548,171.641 229.548,170.063 226.811,170.063 226.811,165.765 229.876,165.765 229.876,164.188 		"/>
		<path style="fill:#231F20;" d="M241.854,164.46c-0.58-0.344-1.233-0.454-1.922-0.454c-2.05,0-3.065,1.58-3.065,3.5
			c0,3.59,3.827,4.134,3.827,6.855c0,1.015-0.472,1.903-1.596,1.903c-0.708,0-1.251-0.308-1.795-0.707v1.831
			c0.562,0.453,1.288,0.653,1.995,0.653c2.013,0,3.209-1.65,3.209-3.572c0-1.849-0.706-2.755-1.94-4.007l-1.378-1.504
			c-0.362-0.471-0.507-0.887-0.507-1.487c0-0.944,0.616-1.759,1.612-1.759c0.617,0,1.071,0.236,1.541,0.58L241.854,164.46z"/>
	</g>
</g>
</svg>
