<svg width="342" height="170" viewBox="0 0 342 170" version="1.1" xmlns="http://www.w3.org/2000/svg" xmlns:xlink="http://www.w3.org/1999/xlink">
<title>Group</title>
<desc>Created using Figma</desc>
<g id="Canvas" transform="translate(-28932 -16293)">
<g id="Group">
<g id="Group">
<g id="Mask" filter="url(#filter0_d)">
<use xlink:href="#path0_fill" transform="translate(28951 16310)" fill="#FFFFFF"/>
<mask id="mask0_outline_ins">
<use xlink:href="#path0_fill" fill="white" transform="translate(28951 16310)"/>
</mask>
<g mask="url(#mask0_outline_ins)">
<use xlink:href="#path1_stroke_2x" transform="translate(28951 16310)" fill="#CCECFC"/>
</g>
</g>
<mask id="mask1_outline" mask-type="alpha">
<g id="Mask">
<use xlink:href="#path0_fill" transform="translate(28951 16310)" fill="#FFFFFF"/>
<mask id="mask2_outline_ins">
<use xlink:href="#path0_fill" fill="white" transform="translate(28951 16310)"/>
</mask>
<g mask="url(#mask2_outline_ins)">
<use xlink:href="#path1_stroke_2x" transform="translate(28951 16310)" fill="#FFFFFF"/>
</g>
</g>
</mask>
<g id="Rectangle 23" mask="url(#mask1_outline)">
<use xlink:href="#path2_fill" transform="translate(28951 16295.4)" fill="#CCECFC"/>
</g>
<g id="Rectangle 37" mask="url(#mask1_outline)">
<use xlink:href="#path3_fill" transform="translate(28973 16331)" fill="#CCECFC"/>
</g>
<g id="Rectangle 37" mask="url(#mask1_outline)">
<use xlink:href="#path4_fill" transform="translate(28974 16354)" fill="#CCECFC"/>
</g>
</g>
</g>
</g>
<defs>
<filter id="filter0_d" filterUnits="userSpaceOnUse" x="28932" y="16293" width="342" height="170" color-interpolation-filters="sRGB">
<feFlood flood-opacity="0" result="BackgroundImageFix"/>
<feColorMatrix in="SourceAlpha" type="matrix" values="0 0 0 0 0 0 0 0 0 0 0 0 0 0 0 0 0 0 255 0"/>
<feOffset dx="0" dy="2"/>
<feGaussianBlur stdDeviation="9.5"/>
<feColorMatrix type="matrix" values="0 0 0 0 0.337255 0 0 0 0 0.8 0 0 0 0 0.94902 0 0 0 0.24 0"/>
<feBlend mode="normal" in2="BackgroundImageFix" result="effect1_dropShadow"/>
<feBlend mode="normal" in="SourceGraphic" in2="effect1_dropShadow" result="shape"/>
</filter>
<path id="path0_fill" fill-rule="evenodd" d="M 0 0L 304 0L 304 132L 0 132L 0 0Z"/>
<path id="path1_stroke_2x" d="M 0 0L 0 -1L -1 -1L -1 0L 0 0ZM 304 0L 305 0L 305 -1L 304 -1L 304 0ZM 304 132L 304 133L 305 133L 305 132L 304 132ZM 0 132L -1 132L -1 133L 0 133L 0 132ZM 0 1L 304 1L 304 -1L 0 -1L 0 1ZM 303 0L 303 132L 305 132L 305 0L 303 0ZM 304 131L 0 131L 0 133L 304 133L 304 131ZM 1 132L 1 0L -1 0L -1 132L 1 132Z"/>
<path id="path2_fill" fill-rule="evenodd" d="M 0 0L 5.1557 0L 5.1557 147.591L 0 147.591L 0 0Z"/>
<path id="path3_fill" d="M 0 0L 83 0L 83 12L 0 12L 0 0Z"/>
<path id="path4_fill" d="M 0 0L 210 0L 210 12L 0 12L 0 0Z"/>
</defs>
</svg>
