<svg width="365" height="181" viewBox="0 0 365 181" version="1.1" xmlns="http://www.w3.org/2000/svg" xmlns:xlink="http://www.w3.org/1999/xlink">
<title>Group</title>
<desc>Created using Figma</desc>
<g id="Canvas" transform="translate(-21576 -6690)">
<g id="Group">
<g id="Mask" filter="url(#filter0_d)">
<use xlink:href="#path0_fill" transform="translate(21595 6707.65)" fill="#FFFFFF"/>
<mask id="mask0_outline_ins">
<use xlink:href="#path0_fill" fill="white" transform="translate(21595 6707.65)"/>
</mask>
<g mask="url(#mask0_outline_ins)">
<use xlink:href="#path1_stroke_2x" transform="translate(21595 6707.65)" fill="#CCECFC"/>
</g>
</g>
<mask id="mask1_outline" mask-type="alpha">
<g id="Mask">
<use xlink:href="#path0_fill" transform="translate(21595 6707.65)" fill="#FFFFFF"/>
<mask id="mask2_outline_ins">
<use xlink:href="#path0_fill" fill="white" transform="translate(21595 6707.65)"/>
</mask>
<g mask="url(#mask2_outline_ins)">
<use xlink:href="#path1_stroke_2x" transform="translate(21595 6707.65)" fill="#FFFFFF"/>
</g>
</g>
</mask>
<g id="Add" mask="url(#mask1_outline)" filter="url(#filter1_d)">
<g id="Group 2">
<g id="Rectangle 5 Copy">
<use xlink:href="#path2_fill" transform="translate(21858 6785)" fill="#f27023"/>
</g>
<g id="Combined Shape">
<use xlink:href="#path3_fill" transform="translate(21877 6804)" fill="#FFFFFF"/>
</g>
</g>
</g>
</g>
</g>
<defs>
<filter id="filter0_d" filterUnits="userSpaceOnUse" x="21576" y="6690" width="365" height="181" color-interpolation-filters="sRGB">
<feFlood flood-opacity="0" result="BackgroundImageFix"/>
<feColorMatrix in="SourceAlpha" type="matrix" values="0 0 0 0 0 0 0 0 0 0 0 0 0 0 0 0 0 0 255 0"/>
<feOffset dx="0" dy="2"/>
<feGaussianBlur stdDeviation="9.5"/>
<feColorMatrix type="matrix" values="0 0 0 0 0.337255 0 0 0 0 0.8 0 0 0 0 0.94902 0 0 0 0.24 0"/>
<feBlend mode="normal" in2="BackgroundImageFix" result="effect1_dropShadow"/>
<feBlend mode="normal" in="SourceGraphic" in2="effect1_dropShadow" result="shape"/>
</filter>
<filter id="filter1_d" filterUnits="userSpaceOnUse" x="21853" y="6780" width="62" height="62" color-interpolation-filters="sRGB">
<feFlood flood-opacity="0" result="BackgroundImageFix"/>
<feColorMatrix in="SourceAlpha" type="matrix" values="0 0 0 0 0 0 0 0 0 0 0 0 0 0 0 0 0 0 255 0"/>
<feOffset dx="0" dy="0"/>
<feGaussianBlur stdDeviation="2.5"/>
<feColorMatrix type="matrix" values="0 0 0 0 0.337255 0 0 0 0 0.8 0 0 0 0 0.94902 0 0 0 0.62 0"/>
<feBlend mode="normal" in2="BackgroundImageFix" result="effect1_dropShadow"/>
<feBlend mode="normal" in="SourceGraphic" in2="effect1_dropShadow" result="shape"/>
</filter>
<path id="path0_fill" fill-rule="evenodd" d="M 0 0L 327 0L 327 142L 0 142L 0 0Z"/>
<path id="path1_stroke_2x" d="M 0 0L 0 -1L -1 -1L -1 0L 0 0ZM 327 0L 328 0L 328 -1L 327 -1L 327 0ZM 327 142L 327 143L 328 143L 328 142L 327 142ZM 0 142L -1 142L -1 143L 0 143L 0 142ZM 0 1L 327 1L 327 -1L 0 -1L 0 1ZM 326 0L 326 142L 328 142L 328 0L 326 0ZM 327 141L 0 141L 0 143L 327 143L 327 141ZM 1 142L 1 0L -1 0L -1 142L 1 142Z"/>
<path id="path2_fill" fill-rule="evenodd" d="M 0 26C 0 11.6406 11.6406 0 26 0C 40.3594 0 52 11.6406 52 26C 52 40.3594 40.3594 52 26 52C 11.6406 52 0 40.3594 0 26Z"/>
<path id="path3_fill" fill-rule="evenodd" d="M 8.21875 0L 5.7832 0L 5.7832 5.78271L 0 5.78271L 0 8.21729L 5.7832 8.21729L 5.7832 14L 8.21875 14L 8.21875 8.21729L 14 8.21729L 14 5.78271L 8.21875 5.78271L 8.21875 0Z"/>
</defs>
</svg>
